# xmcd
#
# Track frame offsets:
#	150
#	11142
#	23402
#	44154
#	55227
#	70680
#
# Disc length: 1180 seconds
# Revision: 0
# Processed by: cddbd v1.5.2PL0 Copyright (c) Steve Scherf et al.
# Submitted via: dBpowerAMP V12.0
#
DISCID=49049a06
DTITLE=The Blue J's - The Blue J's
DYEAR=2016
DGENRE=Bluegrass
TTITLE0=Country Boy Rock and Roll
TTITLE1=Letters Have No Arms
TTITLE2=Up This Hill and Down/Georgia Stomp
TTITLE3=Just a Little Talk With Jesus
TTITLE4=New Camptown Races
TTITLE5=A Face in the Crowd
EXTD=
EXTT0=
EXTT1=
EXTT2=
EXTT3=
EXTT4=
EXTT5=
PLAYORDER=
